<svg width="38" height="35" viewBox="0 0 38 35" fill="none" xmlns="http://www.w3.org/2000/svg">
<line x1="18.1406" y1="6.15332" x2="18.1406" y2="8.30717" stroke="white"/>
<line x1="17.8594" y1="29.8447" x2="17.8594" y2="27.6909" stroke="white"/>
<line x1="6.15234" y1="17.8594" x2="8.30619" y2="17.8594" stroke="white"/>
<line x1="27.6914" y1="17.8594" x2="29.8453" y2="17.8594" stroke="white"/>
<line x1="18.1406" y1="9.74414" x2="18.1406" y2="18.3595" stroke="white"/>
<line x1="18.3594" y1="17.8594" x2="24.103" y2="17.8594" stroke="white"/>
<path d="M33 18C33 17.4477 32.5523 17 32 17C31.4477 17 31 17.4477 31 18L33 18ZM31.111 15.6172C31.5794 15.9099 32.1963 15.7676 32.489 15.2992L37.259 7.66725C37.5517 7.19891 37.4094 6.58196 36.941 6.28925C36.4727 5.99654 35.8557 6.13891 35.563 6.60725L31.323 13.3912L24.539 9.15124C24.0707 8.85853 23.4538 9.00091 23.161 9.46924C22.8683 9.93758 23.0107 10.5545 23.479 10.8472L31.111 15.6172ZM31 18C31 25.1718 24.9198 31 18 31V33C25.9986 33 33 26.3019 33 18L31 18ZM18 31C11.0802 31 5 25.1718 5 18H3C3 26.3019 10.0014 33 18 33V31ZM5 18C5 11.0138 11.0138 5 18 5V3C9.90925 3 3 9.90925 3 18H5ZM18 5C24.9699 5 29.6694 10.6726 30.6666 14.9941L32.6154 14.5444C31.4588 9.53252 26.107 3 18 3V5Z" fill="white"/>
</svg>
