<svg width="37" height="35" viewBox="0 0 37 35" fill="none" xmlns="http://www.w3.org/2000/svg">
<line y1="-0.5" x2="2.15385" y2="-0.5" transform="matrix(4.37103e-08 1 1 -4.37103e-08 20.3594 6.15332)" stroke="white"/>
<line y1="-0.5" x2="2.15385" y2="-0.5" transform="matrix(4.37121e-08 -1 -1 -4.37121e-08 19.6406 29.8457)" stroke="white"/>
<line y1="-0.5" x2="2.15385" y2="-0.5" transform="matrix(-1 0 0 1 31.8516 18.3594)" stroke="white"/>
<line y1="-0.5" x2="2.15385" y2="-0.5" transform="matrix(-1 0 0 1 10.3086 18.3594)" stroke="white"/>
<line y1="-0.5" x2="8.61539" y2="-0.5" transform="matrix(-4.37115e-08 1 1 4.37115e-08 20.3594 9.74414)" stroke="white"/>
<line y1="-0.5" x2="5.74359" y2="-0.5" transform="matrix(-1 0 0 1 19.6406 18.3594)" stroke="white"/>
<path d="M5 18C5 17.4477 5.44771 17 6 17C6.55228 17 7 17.4477 7 18L5 18ZM6.88897 15.6172C6.42064 15.9099 5.80369 15.7676 5.51098 15.2992L0.740985 7.66725C0.448275 7.19891 0.590648 6.58196 1.05898 6.28925C1.52732 5.99654 2.14427 6.13891 2.43698 6.60725L6.67697 13.3912L13.461 9.15124C13.9293 8.85853 14.5462 9.00091 14.839 9.46924C15.1317 9.93758 14.9893 10.5545 14.521 10.8472L6.88897 15.6172ZM7 18C7 25.1718 13.0802 31 20 31V33C12.0014 33 5 26.3019 5 18L7 18ZM20 31C26.9198 31 33 25.1718 33 18H35C35 26.3019 27.9986 33 20 33V31ZM33 18C33 11.0138 26.9862 5 20 5V3C28.0907 3 35 9.90925 35 18H33ZM20 5C13.0301 5 8.33063 10.6726 7.33336 14.9941L5.38458 14.5444C6.54116 9.53252 11.893 3 20 3V5Z" fill="white"/>
</svg>
