<svg width="36" height="36" viewBox="0 0 36 36" fill="none" xmlns="http://www.w3.org/2000/svg">
<path d="M26.1956 0.294922L31.9551 9.55963V35.2949H0.597656V0.294922H26.1956Z" fill="white"/>
<path d="M24.3633 0.794922H26.0173L31.4555 9.89981L31.4555 13.3433H24.3633V0.794922Z" fill="#DBDBDB" stroke="white"/>
<path d="M25.0877 31.0799L27.5127 33.521L35.5957 25.3666L27.5127 17.2295L25.0877 19.6706L29.0261 23.6353H19.8164V27.0979H29.0261L25.0877 31.0799Z" fill="black"/>
<path d="M8.32812 8.59473H10.0801C10.0449 9.16895 9.88672 9.67871 9.60547 10.124C9.32812 10.5693 8.93945 10.917 8.43945 11.167C7.94336 11.417 7.3457 11.542 6.64648 11.542C6.09961 11.542 5.60938 11.4482 5.17578 11.2607C4.74219 11.0693 4.37109 10.7959 4.0625 10.4404C3.75781 10.085 3.52539 9.65527 3.36523 9.15137C3.20508 8.64746 3.125 8.08301 3.125 7.45801V6.86621C3.125 6.24121 3.20703 5.67676 3.37109 5.17285C3.53906 4.66504 3.77734 4.2334 4.08594 3.87793C4.39844 3.52246 4.77148 3.24902 5.20508 3.05762C5.63867 2.86621 6.12305 2.77051 6.6582 2.77051C7.36914 2.77051 7.96875 2.89941 8.45703 3.15723C8.94922 3.41504 9.33008 3.77051 9.59961 4.22363C9.87305 4.67676 10.0371 5.19238 10.0918 5.77051H8.33398C8.31445 5.42676 8.24609 5.13574 8.12891 4.89746C8.01172 4.65527 7.83398 4.47363 7.5957 4.35254C7.36133 4.22754 7.04883 4.16504 6.6582 4.16504C6.36523 4.16504 6.10938 4.21973 5.89062 4.3291C5.67188 4.43848 5.48828 4.60449 5.33984 4.82715C5.19141 5.0498 5.08008 5.33105 5.00586 5.6709C4.93555 6.00684 4.90039 6.40137 4.90039 6.85449V7.45801C4.90039 7.89941 4.93359 8.28809 5 8.62402C5.06641 8.95605 5.16797 9.2373 5.30469 9.46777C5.44531 9.69434 5.625 9.86621 5.84375 9.9834C6.06641 10.0967 6.33398 10.1533 6.64648 10.1533C7.01367 10.1533 7.31641 10.0947 7.55469 9.97754C7.79297 9.86035 7.97461 9.68652 8.09961 9.45605C8.22852 9.22559 8.30469 8.93848 8.32812 8.59473ZM15.0758 9.19238C15.0758 9.04004 15.0523 8.90332 15.0055 8.78223C14.9625 8.65723 14.8805 8.54395 14.7594 8.44238C14.6383 8.33691 14.4684 8.2334 14.2496 8.13184C14.0309 8.03027 13.7477 7.9248 13.4 7.81543C13.0133 7.69043 12.6461 7.5498 12.2984 7.39355C11.9547 7.2373 11.65 7.05566 11.3844 6.84863C11.1227 6.6377 10.9156 6.39355 10.7633 6.11621C10.6148 5.83887 10.5406 5.5166 10.5406 5.14941C10.5406 4.79395 10.6188 4.47168 10.775 4.18262C10.9313 3.88965 11.15 3.63965 11.4313 3.43262C11.7125 3.22168 12.0445 3.05957 12.4273 2.94629C12.8141 2.83301 13.2379 2.77637 13.6988 2.77637C14.3277 2.77637 14.8766 2.88965 15.3453 3.11621C15.8141 3.34277 16.1773 3.65332 16.4352 4.04785C16.6969 4.44238 16.8277 4.89355 16.8277 5.40137H15.0816C15.0816 5.15137 15.0289 4.93262 14.9234 4.74512C14.8219 4.55371 14.6656 4.40332 14.4547 4.29395C14.2477 4.18457 13.9859 4.12988 13.6695 4.12988C13.3648 4.12988 13.1109 4.17676 12.9078 4.27051C12.7047 4.36035 12.5523 4.4834 12.4508 4.63965C12.3492 4.79199 12.2984 4.96387 12.2984 5.15527C12.2984 5.2998 12.3336 5.43066 12.4039 5.54785C12.4781 5.66504 12.5875 5.77441 12.732 5.87598C12.8766 5.97754 13.0543 6.07324 13.2652 6.16309C13.4762 6.25293 13.7203 6.34082 13.9977 6.42676C14.4625 6.56738 14.8707 6.72559 15.2223 6.90137C15.5777 7.07715 15.8746 7.27441 16.1129 7.49316C16.3512 7.71191 16.5309 7.95996 16.652 8.2373C16.773 8.51465 16.8336 8.8291 16.8336 9.18066C16.8336 9.55176 16.7613 9.88379 16.6168 10.1768C16.4723 10.4697 16.2633 10.7178 15.9898 10.9209C15.7164 11.124 15.3902 11.2783 15.0113 11.3838C14.6324 11.4893 14.2086 11.542 13.7398 11.542C13.318 11.542 12.902 11.4873 12.4918 11.3779C12.0816 11.2646 11.7086 11.0947 11.3727 10.8682C11.0406 10.6416 10.775 10.3525 10.5758 10.001C10.3766 9.64941 10.277 9.2334 10.277 8.75293H12.0406C12.0406 9.01855 12.0816 9.24316 12.1637 9.42676C12.2457 9.61035 12.3609 9.75879 12.5094 9.87207C12.6617 9.98535 12.8414 10.0674 13.0484 10.1182C13.2594 10.1689 13.4898 10.1943 13.7398 10.1943C14.0445 10.1943 14.2945 10.1514 14.4898 10.0654C14.6891 9.97949 14.8355 9.86035 14.9293 9.70801C15.027 9.55566 15.0758 9.38379 15.0758 9.19238ZM20.5051 9.64355L22.5148 2.89355H24.4719L21.5012 11.4248H20.2121L20.5051 9.64355ZM18.6535 2.89355L20.6574 9.64355L20.9621 11.4248H19.6613L16.7082 2.89355H18.6535ZM9.04297 21.1064V22.4248H3.20703V21.2998L5.9668 18.3408C6.24414 18.0322 6.46289 17.7607 6.62305 17.5264C6.7832 17.2881 6.89844 17.0752 6.96875 16.8877C7.04297 16.6963 7.08008 16.5146 7.08008 16.3428C7.08008 16.085 7.03711 15.8643 6.95117 15.6807C6.86523 15.4932 6.73828 15.3486 6.57031 15.2471C6.40625 15.1455 6.20312 15.0947 5.96094 15.0947C5.70312 15.0947 5.48047 15.1572 5.29297 15.2822C5.10938 15.4072 4.96875 15.5811 4.87109 15.8037C4.77734 16.0264 4.73047 16.2783 4.73047 16.5596H3.03711C3.03711 16.0518 3.1582 15.5869 3.40039 15.165C3.64258 14.7393 3.98438 14.4014 4.42578 14.1514C4.86719 13.8975 5.39062 13.7705 5.99609 13.7705C6.59375 13.7705 7.09766 13.8682 7.50781 14.0635C7.92188 14.2549 8.23438 14.5322 8.44531 14.8955C8.66016 15.2549 8.76758 15.6846 8.76758 16.1846C8.76758 16.4658 8.72266 16.7412 8.63281 17.0107C8.54297 17.2764 8.41406 17.542 8.24609 17.8076C8.08203 18.0693 7.88281 18.335 7.64844 18.6045C7.41406 18.874 7.1543 19.1533 6.86914 19.4424L5.38672 21.1064H9.04297ZM12.2926 22.4248H10.4352L10.4469 21.0537H12.2926C12.7535 21.0537 13.1422 20.9502 13.4586 20.7432C13.775 20.5322 14.0133 20.2256 14.1734 19.8232C14.3375 19.4209 14.4195 18.9346 14.4195 18.3643V17.9482C14.4195 17.5107 14.3727 17.126 14.2789 16.7939C14.1891 16.4619 14.0543 16.1826 13.8746 15.9561C13.6949 15.7295 13.4742 15.5596 13.2125 15.4463C12.9508 15.3291 12.65 15.2705 12.3102 15.2705H10.4V13.8936H12.3102C12.8805 13.8936 13.402 13.9912 13.8746 14.1865C14.3512 14.3779 14.7633 14.6533 15.1109 15.0127C15.4586 15.3721 15.7262 15.8018 15.9137 16.3018C16.1051 16.7979 16.2008 17.3506 16.2008 17.96V18.3643C16.2008 18.9697 16.1051 19.5225 15.9137 20.0225C15.7262 20.5225 15.4586 20.9521 15.1109 21.3115C14.7672 21.667 14.3551 21.9424 13.8746 22.1377C13.398 22.3291 12.8707 22.4248 12.2926 22.4248ZM11.4313 13.8936V22.4248H9.67344V13.8936H11.4313Z" fill="black"/>
</svg>
