<svg width="36" height="35" viewBox="0 0 36 35" fill="none" xmlns="http://www.w3.org/2000/svg">
<path d="M26.0003 0L31.7598 9.26471V35H0.402344V0H26.0003Z" fill="white"/>
<path d="M24.168 0.5H25.822L31.2602 9.60489L31.2602 13.0484H24.168V0.5Z" fill="#DBDBDB" stroke="white"/>
<path d="M24.8924 30.785L27.3173 33.2261L35.4004 25.0717L27.3173 16.9346L24.8924 19.3757L28.8308 23.3404H19.6211V26.803H28.8308L24.8924 30.785Z" fill="black"/>
<path d="M5.80664 11.1299H3.94922L3.96094 9.75879H5.80664C6.26758 9.75879 6.65625 9.65527 6.97266 9.44824C7.28906 9.2373 7.52734 8.93066 7.6875 8.52832C7.85156 8.12598 7.93359 7.63965 7.93359 7.06934V6.65332C7.93359 6.21582 7.88672 5.83105 7.79297 5.49902C7.70312 5.16699 7.56836 4.8877 7.38867 4.66113C7.20898 4.43457 6.98828 4.26465 6.72656 4.15137C6.46484 4.03418 6.16406 3.97559 5.82422 3.97559H3.91406V2.59863H5.82422C6.39453 2.59863 6.91602 2.69629 7.38867 2.8916C7.86523 3.08301 8.27734 3.3584 8.625 3.71777C8.97266 4.07715 9.24023 4.50684 9.42773 5.00684C9.61914 5.50293 9.71484 6.05566 9.71484 6.66504V7.06934C9.71484 7.6748 9.61914 8.22754 9.42773 8.72754C9.24023 9.22754 8.97266 9.65723 8.625 10.0166C8.28125 10.3721 7.86914 10.6475 7.38867 10.8428C6.91211 11.0342 6.38477 11.1299 5.80664 11.1299ZM4.94531 2.59863V11.1299H3.1875V2.59863H4.94531ZM11.7105 2.59863L13.316 5.5752L14.9215 2.59863H16.9313L14.4527 6.8291L16.9957 11.1299H14.9684L13.316 8.09473L11.6637 11.1299H9.62461L12.1734 6.8291L9.68906 2.59863H11.7105ZM19.0383 2.59863V11.1299H17.2805V2.59863H19.0383ZM22.4367 6.24316V7.61426H18.5578V6.24316H22.4367ZM22.8469 2.59863V3.97559H18.5578V2.59863H22.8469ZM8.84766 20.8115V22.1299H3.01172V21.0049L5.77148 18.0459C6.04883 17.7373 6.26758 17.4658 6.42773 17.2314C6.58789 16.9932 6.70312 16.7803 6.77344 16.5928C6.84766 16.4014 6.88477 16.2197 6.88477 16.0479C6.88477 15.79 6.8418 15.5693 6.75586 15.3857C6.66992 15.1982 6.54297 15.0537 6.375 14.9521C6.21094 14.8506 6.00781 14.7998 5.76562 14.7998C5.50781 14.7998 5.28516 14.8623 5.09766 14.9873C4.91406 15.1123 4.77344 15.2861 4.67578 15.5088C4.58203 15.7314 4.53516 15.9834 4.53516 16.2646H2.8418C2.8418 15.7568 2.96289 15.292 3.20508 14.8701C3.44727 14.4443 3.78906 14.1064 4.23047 13.8564C4.67188 13.6025 5.19531 13.4756 5.80078 13.4756C6.39844 13.4756 6.90234 13.5732 7.3125 13.7686C7.72656 13.96 8.03906 14.2373 8.25 14.6006C8.46484 14.96 8.57227 15.3896 8.57227 15.8896C8.57227 16.1709 8.52734 16.4463 8.4375 16.7158C8.34766 16.9814 8.21875 17.2471 8.05078 17.5127C7.88672 17.7744 7.6875 18.04 7.45312 18.3096C7.21875 18.5791 6.95898 18.8584 6.67383 19.1475L5.19141 20.8115H8.84766ZM12.0973 22.1299H10.2398L10.2516 20.7588H12.0973C12.5582 20.7588 12.9469 20.6553 13.2633 20.4482C13.5797 20.2373 13.818 19.9307 13.9781 19.5283C14.1422 19.126 14.2242 18.6396 14.2242 18.0693V17.6533C14.2242 17.2158 14.1773 16.8311 14.0836 16.499C13.9938 16.167 13.859 15.8877 13.6793 15.6611C13.4996 15.4346 13.2789 15.2646 13.0172 15.1514C12.7555 15.0342 12.4547 14.9756 12.1148 14.9756H10.2047V13.5986H12.1148C12.6852 13.5986 13.2066 13.6963 13.6793 13.8916C14.1559 14.083 14.568 14.3584 14.9156 14.7178C15.2633 15.0771 15.5309 15.5068 15.7184 16.0068C15.9098 16.5029 16.0055 17.0557 16.0055 17.665V18.0693C16.0055 18.6748 15.9098 19.2275 15.7184 19.7275C15.5309 20.2275 15.2633 20.6572 14.9156 21.0166C14.5719 21.3721 14.1598 21.6475 13.6793 21.8428C13.2027 22.0342 12.6754 22.1299 12.0973 22.1299ZM11.2359 13.5986V22.1299H9.47813V13.5986H11.2359Z" fill="black"/>
</svg>
