<svg width="35" height="36" viewBox="0 0 35 36" fill="none" xmlns="http://www.w3.org/2000/svg">
<path d="M25.5979 0.147461L31.3575 9.41217V35.1475H0V0.147461H25.5979Z" fill="white"/>
<path d="M23.7656 0.647461H25.4197L30.8579 9.75235L30.8579 13.1958H23.7656V0.647461Z" fill="#DBDBDB" stroke="white"/>
<path d="M24.4901 30.9324L26.915 33.3736L34.9981 25.2192L26.915 17.082L24.4901 19.5232L28.4284 23.4878H19.2188V26.9505H28.4284L24.4901 30.9324Z" fill="black"/>
<path d="M5.4043 11.2773H3.54688L3.55859 9.90625H5.4043C5.86523 9.90625 6.25391 9.80273 6.57031 9.5957C6.88672 9.38477 7.125 9.07812 7.28516 8.67578C7.44922 8.27344 7.53125 7.78711 7.53125 7.2168V6.80078C7.53125 6.36328 7.48438 5.97852 7.39062 5.64648C7.30078 5.31445 7.16602 5.03516 6.98633 4.80859C6.80664 4.58203 6.58594 4.41211 6.32422 4.29883C6.0625 4.18164 5.76172 4.12305 5.42188 4.12305H3.51172V2.74609H5.42188C5.99219 2.74609 6.51367 2.84375 6.98633 3.03906C7.46289 3.23047 7.875 3.50586 8.22266 3.86523C8.57031 4.22461 8.83789 4.6543 9.02539 5.1543C9.2168 5.65039 9.3125 6.20312 9.3125 6.8125V7.2168C9.3125 7.82227 9.2168 8.375 9.02539 8.875C8.83789 9.375 8.57031 9.80469 8.22266 10.1641C7.87891 10.5195 7.4668 10.7949 6.98633 10.9902C6.50977 11.1816 5.98242 11.2773 5.4043 11.2773ZM4.54297 2.74609V11.2773H2.78516V2.74609H4.54297ZM11.3082 2.74609L12.9137 5.72266L14.5191 2.74609H16.5289L14.0504 6.97656L16.5934 11.2773H14.566L12.9137 8.24219L11.2613 11.2773H9.22227L11.7711 6.97656L9.28672 2.74609H11.3082ZM18.6359 2.74609V11.2773H16.8781V2.74609H18.6359ZM22.0344 6.39062V7.76172H18.1555V6.39062H22.0344ZM22.4445 2.74609V4.12305H18.1555V2.74609H22.4445ZM4.33789 17.2793H5.24023C5.5293 17.2793 5.76758 17.2305 5.95508 17.1328C6.14258 17.0312 6.28125 16.8906 6.37109 16.7109C6.46484 16.5273 6.51172 16.3145 6.51172 16.0723C6.51172 15.8535 6.46875 15.6602 6.38281 15.4922C6.30078 15.3203 6.17383 15.1875 6.00195 15.0938C5.83008 14.9961 5.61328 14.9473 5.35156 14.9473C5.14453 14.9473 4.95312 14.9883 4.77734 15.0703C4.60156 15.1523 4.46094 15.2676 4.35547 15.416C4.25 15.5645 4.19727 15.7441 4.19727 15.9551H2.50391C2.50391 15.4863 2.62891 15.0781 2.87891 14.7305C3.13281 14.3828 3.47266 14.1113 3.89844 13.916C4.32422 13.7207 4.79297 13.623 5.30469 13.623C5.88281 13.623 6.38867 13.7168 6.82227 13.9043C7.25586 14.0879 7.59375 14.3594 7.83594 14.7188C8.07812 15.0781 8.19922 15.5234 8.19922 16.0547C8.19922 16.3242 8.13672 16.5859 8.01172 16.8398C7.88672 17.0898 7.70703 17.3164 7.47266 17.5195C7.24219 17.7188 6.96094 17.8789 6.62891 18C6.29688 18.1172 5.92383 18.1758 5.50977 18.1758H4.33789V17.2793ZM4.33789 18.5625V17.6895H5.50977C5.97461 17.6895 6.38281 17.7422 6.73438 17.8477C7.08594 17.9531 7.38086 18.1055 7.61914 18.3047C7.85742 18.5 8.03711 18.7324 8.1582 19.002C8.2793 19.2676 8.33984 19.5625 8.33984 19.8867C8.33984 20.2852 8.26367 20.6406 8.11133 20.9531C7.95898 21.2617 7.74414 21.5234 7.4668 21.7383C7.19336 21.9531 6.87305 22.1172 6.50586 22.2305C6.13867 22.3398 5.73828 22.3945 5.30469 22.3945C4.94531 22.3945 4.5918 22.3457 4.24414 22.248C3.90039 22.1465 3.58789 21.9961 3.30664 21.7969C3.0293 21.5938 2.80664 21.3398 2.63867 21.0352C2.47461 20.7266 2.39258 20.3613 2.39258 19.9395H4.08594C4.08594 20.1582 4.14062 20.3535 4.25 20.5254C4.35938 20.6973 4.50977 20.832 4.70117 20.9297C4.89648 21.0273 5.11328 21.0762 5.35156 21.0762C5.62109 21.0762 5.85156 21.0273 6.04297 20.9297C6.23828 20.8281 6.38672 20.6875 6.48828 20.5078C6.59375 20.3242 6.64648 20.1113 6.64648 19.8691C6.64648 19.5566 6.58984 19.3066 6.47656 19.1191C6.36328 18.9277 6.20117 18.7871 5.99023 18.6973C5.7793 18.6074 5.5293 18.5625 5.24023 18.5625H4.33789ZM11.6949 22.2773H9.8375L9.84922 20.9062H11.6949C12.1559 20.9062 12.5445 20.8027 12.8609 20.5957C13.1773 20.3848 13.4156 20.0781 13.5758 19.6758C13.7398 19.2734 13.8219 18.7871 13.8219 18.2168V17.8008C13.8219 17.3633 13.775 16.9785 13.6813 16.6465C13.5914 16.3145 13.4566 16.0352 13.277 15.8086C13.0973 15.582 12.8766 15.4121 12.6148 15.2988C12.3531 15.1816 12.0523 15.123 11.7125 15.123H9.80234V13.7461H11.7125C12.2828 13.7461 12.8043 13.8438 13.277 14.0391C13.7535 14.2305 14.1656 14.5059 14.5133 14.8652C14.8609 15.2246 15.1285 15.6543 15.316 16.1543C15.5074 16.6504 15.6031 17.2031 15.6031 17.8125V18.2168C15.6031 18.8223 15.5074 19.375 15.316 19.875C15.1285 20.375 14.8609 20.8047 14.5133 21.1641C14.1695 21.5195 13.7574 21.7949 13.277 21.9902C12.8004 22.1816 12.273 22.2773 11.6949 22.2773ZM10.8336 13.7461V22.2773H9.07578V13.7461H10.8336Z" fill="black"/>
</svg>
