<svg width="36" height="36" viewBox="0 0 36 36" fill="none" xmlns="http://www.w3.org/2000/svg">
<path d="M25.7932 0.442383L31.5528 9.70709V35.4424H0.195312V0.442383H25.7932Z" fill="white"/>
<path d="M23.9609 0.942383H25.615L31.0532 10.0473L31.0532 13.4908H23.9609V0.942383Z" fill="#DBDBDB" stroke="white"/>
<path d="M24.6854 31.2274L27.1103 33.6685L35.1934 25.5141L27.1103 17.377L24.6854 19.8181L28.6237 23.7828H19.4141V27.2454H28.6237L24.6854 31.2274Z" fill="black"/>
<path d="M8.46484 10.2012V11.5723H4.16992V10.2012H8.46484ZM4.73828 3.04102V11.5723H2.98047V3.04102H4.73828ZM12.4586 4.5L10.1383 11.5723H8.26914L11.4391 3.04102H12.6285L12.4586 4.5ZM14.3863 11.5723L12.0602 4.5L11.8727 3.04102H13.0738L16.2613 11.5723H14.3863ZM14.2809 8.39648V9.77344H9.775V8.39648H14.2809ZM20.8938 9.33984C20.8938 9.1875 20.8703 9.05078 20.8234 8.92969C20.7805 8.80469 20.6984 8.69141 20.5773 8.58984C20.4563 8.48438 20.2863 8.38086 20.0676 8.2793C19.8488 8.17773 19.5656 8.07227 19.218 7.96289C18.8313 7.83789 18.4641 7.69727 18.1164 7.54102C17.7727 7.38477 17.468 7.20312 17.2023 6.99609C16.9406 6.78516 16.7336 6.54102 16.5813 6.26367C16.4328 5.98633 16.3586 5.66406 16.3586 5.29688C16.3586 4.94141 16.4367 4.61914 16.593 4.33008C16.7492 4.03711 16.968 3.78711 17.2492 3.58008C17.5305 3.36914 17.8625 3.20703 18.2453 3.09375C18.632 2.98047 19.0559 2.92383 19.5168 2.92383C20.1457 2.92383 20.6945 3.03711 21.1633 3.26367C21.632 3.49023 21.9953 3.80078 22.2531 4.19531C22.5148 4.58984 22.6457 5.04102 22.6457 5.54883H20.8996C20.8996 5.29883 20.8469 5.08008 20.7414 4.89258C20.6398 4.70117 20.4836 4.55078 20.2727 4.44141C20.0656 4.33203 19.8039 4.27734 19.4875 4.27734C19.1828 4.27734 18.9289 4.32422 18.7258 4.41797C18.5227 4.50781 18.3703 4.63086 18.2688 4.78711C18.1672 4.93945 18.1164 5.11133 18.1164 5.30273C18.1164 5.44727 18.1516 5.57812 18.2219 5.69531C18.2961 5.8125 18.4055 5.92188 18.55 6.02344C18.6945 6.125 18.8723 6.2207 19.0832 6.31055C19.2941 6.40039 19.5383 6.48828 19.8156 6.57422C20.2805 6.71484 20.6887 6.87305 21.0402 7.04883C21.3957 7.22461 21.6926 7.42188 21.9309 7.64062C22.1691 7.85938 22.3488 8.10742 22.4699 8.38477C22.591 8.66211 22.6516 8.97656 22.6516 9.32812C22.6516 9.69922 22.5793 10.0312 22.4348 10.3242C22.2902 10.6172 22.0813 10.8652 21.8078 11.0684C21.5344 11.2715 21.2082 11.4258 20.8293 11.5312C20.4504 11.6367 20.0266 11.6895 19.5578 11.6895C19.1359 11.6895 18.7199 11.6348 18.3098 11.5254C17.8996 11.4121 17.5266 11.2422 17.1906 11.0156C16.8586 10.7891 16.593 10.5 16.3938 10.1484C16.1945 9.79688 16.0949 9.38086 16.0949 8.90039H17.8586C17.8586 9.16602 17.8996 9.39062 17.9816 9.57422C18.0637 9.75781 18.1789 9.90625 18.3273 10.0195C18.4797 10.1328 18.6594 10.2148 18.8664 10.2656C19.0773 10.3164 19.3078 10.3418 19.5578 10.3418C19.8625 10.3418 20.1125 10.2988 20.3078 10.2129C20.507 10.127 20.6535 10.0078 20.7473 9.85547C20.8449 9.70312 20.8938 9.53125 20.8938 9.33984ZM4.5332 17.5742H5.43555C5.72461 17.5742 5.96289 17.5254 6.15039 17.4277C6.33789 17.3262 6.47656 17.1855 6.56641 17.0059C6.66016 16.8223 6.70703 16.6094 6.70703 16.3672C6.70703 16.1484 6.66406 15.9551 6.57812 15.7871C6.49609 15.6152 6.36914 15.4824 6.19727 15.3887C6.02539 15.291 5.80859 15.2422 5.54688 15.2422C5.33984 15.2422 5.14844 15.2832 4.97266 15.3652C4.79688 15.4473 4.65625 15.5625 4.55078 15.7109C4.44531 15.8594 4.39258 16.0391 4.39258 16.25H2.69922C2.69922 15.7812 2.82422 15.373 3.07422 15.0254C3.32812 14.6777 3.66797 14.4062 4.09375 14.2109C4.51953 14.0156 4.98828 13.918 5.5 13.918C6.07812 13.918 6.58398 14.0117 7.01758 14.1992C7.45117 14.3828 7.78906 14.6543 8.03125 15.0137C8.27344 15.373 8.39453 15.8184 8.39453 16.3496C8.39453 16.6191 8.33203 16.8809 8.20703 17.1348C8.08203 17.3848 7.90234 17.6113 7.66797 17.8145C7.4375 18.0137 7.15625 18.1738 6.82422 18.2949C6.49219 18.4121 6.11914 18.4707 5.70508 18.4707H4.5332V17.5742ZM4.5332 18.8574V17.9844H5.70508C6.16992 17.9844 6.57812 18.0371 6.92969 18.1426C7.28125 18.248 7.57617 18.4004 7.81445 18.5996C8.05273 18.7949 8.23242 19.0273 8.35352 19.2969C8.47461 19.5625 8.53516 19.8574 8.53516 20.1816C8.53516 20.5801 8.45898 20.9355 8.30664 21.248C8.1543 21.5566 7.93945 21.8184 7.66211 22.0332C7.38867 22.248 7.06836 22.4121 6.70117 22.5254C6.33398 22.6348 5.93359 22.6895 5.5 22.6895C5.14062 22.6895 4.78711 22.6406 4.43945 22.543C4.0957 22.4414 3.7832 22.291 3.50195 22.0918C3.22461 21.8887 3.00195 21.6348 2.83398 21.3301C2.66992 21.0215 2.58789 20.6562 2.58789 20.2344H4.28125C4.28125 20.4531 4.33594 20.6484 4.44531 20.8203C4.55469 20.9922 4.70508 21.127 4.89648 21.2246C5.0918 21.3223 5.30859 21.3711 5.54688 21.3711C5.81641 21.3711 6.04688 21.3223 6.23828 21.2246C6.43359 21.123 6.58203 20.9824 6.68359 20.8027C6.78906 20.6191 6.8418 20.4062 6.8418 20.1641C6.8418 19.8516 6.78516 19.6016 6.67188 19.4141C6.55859 19.2227 6.39648 19.082 6.18555 18.9922C5.97461 18.9023 5.72461 18.8574 5.43555 18.8574H4.5332ZM11.8902 22.5723H10.0328L10.0445 21.2012H11.8902C12.3512 21.2012 12.7398 21.0977 13.0563 20.8906C13.3727 20.6797 13.6109 20.373 13.7711 19.9707C13.9352 19.5684 14.0172 19.082 14.0172 18.5117V18.0957C14.0172 17.6582 13.9703 17.2734 13.8766 16.9414C13.7867 16.6094 13.652 16.3301 13.4723 16.1035C13.2926 15.877 13.0719 15.707 12.8102 15.5938C12.5484 15.4766 12.2477 15.418 11.9078 15.418H9.99766V14.041H11.9078C12.4781 14.041 12.9996 14.1387 13.4723 14.334C13.9488 14.5254 14.3609 14.8008 14.7086 15.1602C15.0563 15.5195 15.3238 15.9492 15.5113 16.4492C15.7027 16.9453 15.7984 17.498 15.7984 18.1074V18.5117C15.7984 19.1172 15.7027 19.6699 15.5113 20.1699C15.3238 20.6699 15.0563 21.0996 14.7086 21.459C14.3648 21.8145 13.9527 22.0898 13.4723 22.2852C12.9957 22.4766 12.4684 22.5723 11.8902 22.5723ZM11.0289 14.041V22.5723H9.27109V14.041H11.0289Z" fill="black"/>
</svg>
